<?xml version="1.0" encoding="UTF-8" standalone="no"?>
<!-- Created with Inkscape (http://www.inkscape.org/) -->
<svg
   xmlns:dc="http://purl.org/dc/elements/1.1/"
   xmlns:cc="http://web.resource.org/cc/"
   xmlns:rdf="http://www.w3.org/1999/02/22-rdf-syntax-ns#"
   xmlns:svg="http://www.w3.org/2000/svg"
   xmlns="http://www.w3.org/2000/svg"
   xmlns:sodipodi="http://inkscape.sourceforge.net/DTD/sodipodi-0.dtd"
   xmlns:inkscape="http://www.inkscape.org/namespaces/inkscape"
   id="svg2"
   sodipodi:version="0.32"
   inkscape:version="0.43"
   width="400"
   height="300"
   version="1.0"
   sodipodi:docbase="D:\obrazki\svg\inne\flagi pirackie"
   sodipodi:docname="Bartholomew_Roberts_Flag1.svg">
  <metadata
     id="metadata7">
    <rdf:RDF>
      <cc:Work
         rdf:about="">
        <dc:format>image/svg+xml</dc:format>
        <dc:type
           rdf:resource="http://purl.org/dc/dcmitype/StillImage" />
      </cc:Work>
    </rdf:RDF>
  </metadata>
  <defs
     id="defs5" />
  <sodipodi:namedview
     inkscape:window-height="712"
     inkscape:window-width="1024"
     inkscape:pageshadow="2"
     inkscape:pageopacity="0.0"
     borderopacity="1.0"
     bordercolor="#666666"
     pagecolor="#ffffff"
     id="base"
     inkscape:zoom="1"
     inkscape:cx="221.16511"
     inkscape:cy="60.22373"
     inkscape:window-x="-4"
     inkscape:window-y="-4"
     inkscape:current-layer="layer1"
     showguides="true"
     inkscape:guide-bbox="true" />
  <g
     inkscape:groupmode="layer"
     id="layer3"
     inkscape:label="r"
     style="display:inline" />
  <g
     inkscape:groupmode="layer"
     id="layer1"
     inkscape:label="a"
     sodipodi:insensitive="true"
     style="display:inline">
    <rect
       style="opacity:1;color:#000000;fill:#000000;fill-opacity:1;fill-rule:evenodd;stroke:none;stroke-width:1;stroke-linecap:butt;stroke-linejoin:miter;marker:none;marker-start:none;marker-mid:none;marker-end:none;stroke-miterlimit:4;stroke-dasharray:none;stroke-dashoffset:0;stroke-opacity:1;visibility:visible;display:inline;overflow:visible"
       id="rect1306"
       width="398.99994"
       height="299.00009"
       x="0.50003052"
       y="0.49995422" />
  </g>
  <g
     inkscape:groupmode="layer"
     id="layer2"
     inkscape:label="d"
     style="display:inline">
    <path
       style="fill:#ffffff;fill-opacity:1;fill-rule:evenodd;stroke:#000000;stroke-width:1px;stroke-linecap:butt;stroke-linejoin:miter;stroke-opacity:1"
       d="M 180,243 C 177.57663,241.80364 177.54273,237.49148 173.5,237.75 C 170.93014,233.5 171.25266,229.25 171.25,225 L 180.5,218 L 193,216.5 C 198.81213,224.91525 193.93783,226.75141 191.75,232.5 C 192.25,234.9523 192.75,236.82427 193.25,240.5 C 192.46567,244.2746 181.61922,245.79623 180,243 z "
       id="path4923"
       sodipodi:nodetypes="cccccccc" />
    <path
       style="fill:#ffffff;fill-opacity:1;fill-rule:evenodd;stroke:#000000;stroke-width:1px;stroke-linecap:butt;stroke-linejoin:miter;stroke-opacity:1"
       d="M 212.75,240.5 C 213.49901,234.84538 211.66451,236.02412 210.25,231.5 C 209.63309,226.81592 209.45174,223.43856 209.5,220.75 C 211.53838,216.99342 214.96905,216.02144 219,216.25 C 234.49697,216.32497 234.78606,220.90598 232.5,226.25 C 232.44753,233.97469 224.25737,236.38923 224,242.75 C 220.3231,243.48827 216.03841,244.48116 212.75,240.5 z "
       id="path4921"
       sodipodi:nodetypes="ccccccc" />
    <path
       style="fill:#ffffff;fill-opacity:1;fill-rule:evenodd;stroke:#000000;stroke-width:1;stroke-linecap:butt;stroke-linejoin:miter;stroke-opacity:1;stroke-miterlimit:4;stroke-dasharray:none"
       d="M 221,76.75 C 230.29193,77.789133 243.81497,87.510845 253,109.5 C 259.41346,110.08974 263.52456,105.28422 261.75,115 C 264.53942,118.58333 267.27104,122.16667 265.5,125.75 C 269.65797,129.08477 273.62836,130.97328 274.40429,134.71919 C 275.38282,139.44321 273.66649,144.33804 272.25,145.5 C 269.75,148.20224 267.75,142.04924 264.75,140.25 C 264.69576,143.05819 263.35748,143.2983 262,143.5 C 255.81968,140.67349 259.37858,133.97738 256,128.75 C 251.37553,124.01736 248.57562,127.17512 245.5,122.25 C 237.15123,115.75738 230.23051,107.55109 225.21351,97.060354 C 225.25822,102.514 219.32684,104.47761 218.14244,111.55604 C 218.84955,113.20596 219.08525,114.85587 218.84955,116.50579 C 221.70263,126.72984 233.53896,142.90986 223.7993,141.96163 L 223.7993,144.43651 C 228.67024,149.01066 228.04567,152.74573 228.75224,158.17687 C 230.11776,168.67306 228.53204,180.22199 227.33483,180.49895 C 225.80277,186.40472 224.62426,194.76557 222.73864,202.41926 C 226.21182,215.20725 236.34424,210.5727 235.82011,214.44008 C 235.049,221.25811 226.40471,220.12402 217.08178,213.02587 C 215.54972,215.07674 214.01765,214.88098 212.48559,215.14719 L 211.42493,213.37942 C 215.16723,211.19952 214.82918,206.2994 216.02112,202.41926 C 211.74354,193.58043 215.65456,184.74159 216.72823,175.90276 L 220.61732,175.19565 L 216.72823,173.78144 C 212.08131,165.17831 206.37818,156.57517 204.35386,147.97204 L 201.87899,147.97204 L 191.97949,165.29616 C 188.36323,170.73668 185.35139,176.25276 189.15106,182.62027 C 187.83304,190.05211 187.35331,197.20453 191.62594,202.77282 C 195.51618,208.49283 196.08847,217.40571 186.67619,215.50074 C 183.72991,214.44347 180.78363,223.46752 173.59471,226.46089 C 167.9734,226.81444 168.39138,221.51114 172.1805,219.03627 C 177.2453,214.79363 179.71284,210.55099 181.01934,206.30835 C 180.21343,197.36357 171.12899,188.37124 176.06959,182.26672 C 170.00732,179.5314 177.66617,164.07534 180.66578,152.21468 C 175.57636,149.27001 179.39764,131.64962 189.50462,119.33422 C 188.35292,117.80215 188.79336,116.27009 189.50462,114.73802 C 185.83554,112.52239 186.84927,104.69675 182.7871,101.65655 C 181.13599,106.27103 176.22831,110.88552 169.25,115.5 C 163.91667,115.66667 158.58333,115.83333 153.25,116 C 149.96882,117.48058 145.81838,121.95486 139.75,114.5 C 131.23206,122.79107 134.43422,118.62285 126,120 C 122.62751,115.4237 122.73338,112.33812 124,109.75 C 130.95937,107.8973 120.96311,106.67269 121,102.5 C 122.91667,100.78229 124.83333,100.21882 126.75,100.5 C 130.15235,91.163663 127.99638,82.757848 128.9708,73.301397 C 129.99382,63.373227 131.71169,52.286986 135.5,37.75 C 137.97094,51.946685 136.14278,73.666807 136.25,92 L 136.5,97.5 C 140.78703,97.966437 143.5102,97.972794 143.75,100.25 L 141.25,104 C 145.29388,103.96055 149.54178,104.12512 154.25,104.75 L 161,102.5 C 171.12312,87.037594 180.79142,80.671629 190.25,78.5 C 192.79701,76.656427 193.6065,74.562815 195.51503,71.781286 C 194.34096,68.063418 192.77355,64.837225 193.3937,58.876587 C 190.90705,60.856462 188.92726,61.315763 187.3833,60.467578 L 185.43875,57.462374 C 184.98625,55.871384 185.84054,54.280393 189.15106,52.689403 C 193.60044,47.639582 196.60175,42.300146 198.69701,36.7795 C 201.67241,31.717327 204.12938,34.950057 206.65196,37.133054 C 209.99144,37.182745 213.20897,29.776209 215.49079,36.24917 C 217.27336,42.789908 222.9574,44.557675 226.45095,50.037753 C 226.8834,52.428382 223.26176,57.325288 220.08699,56.755267 L 217.61211,57.815927 C 218.37947,65.004846 213.42473,68.127901 213.19269,72.488393 C 215.73719,72.75954 217.97328,75.222927 221,76.75 z "
       id="path1387"
       sodipodi:nodetypes="ccccccccccccccccccccccccsccccccccccscccccccccccsccccccccccccccccccccc" />
    <path
       style="fill:#010101;fill-opacity:1;fill-rule:evenodd;stroke:none;stroke-width:1px;stroke-linecap:butt;stroke-linejoin:miter;stroke-opacity:1"
       d="M 192.125,59.625 C 194.27122,52.062885 203.16872,51.002048 206.125,44.5 C 211.48149,50.467641 214.27057,49.290595 219.75,57.125 L 220.25,59.25 L 218.125,57.625 C 208.33076,46.182884 200.92616,50.793335 193.125,60 L 190.5,64.25 L 192.125,59.625 z "
       id="path2266"
       sodipodi:nodetypes="cccccccc" />
    <path
       style="fill:#010101;fill-opacity:1;fill-rule:evenodd;stroke:#000000;stroke-width:1px;stroke-linecap:butt;stroke-linejoin:miter;stroke-opacity:1"
       d="M 198.375,58.875 C 200.41176,57.487656 203.3977,58.542682 206.26472,58.455141 C 209.51442,58.355914 212.61133,57.287099 214,58.625 C 213.54029,61.004441 212.50171,60.844676 211.37818,60.790091 C 209.81459,60.714126 209.59438,58.897216 206,58.375 C 203.03266,58.704281 202.44032,60.450328 200.84798,60.559783 C 199.81532,60.630766 199.40766,61.01344 198.375,58.875 z "
       id="path3141"
       sodipodi:nodetypes="cscscsc" />
    <path
       style="fill:#010101;fill-opacity:1;fill-rule:evenodd;stroke:none;stroke-width:1px;stroke-linecap:butt;stroke-linejoin:miter;stroke-opacity:1;opacity:1;color:#000000;marker:none;marker-start:none;marker-mid:none;marker-end:none;stroke-miterlimit:4;stroke-dasharray:none;stroke-dashoffset:0;visibility:visible;display:inline;overflow:visible"
       d="M 198.5,69.5 C 200.9366,71.840093 205.49759,68.270533 203.75,63.875 C 207.938,67.715008 207.24525,72.06482 211.625,67.25 C 210.91989,71.10203 209.58454,73.521674 205.25,69.125 C 198.75186,74.67818 199.30314,71.223762 198.5,69.5 z "
       id="path3147"
       sodipodi:nodetypes="ccccc" />
    <path
       style="fill:none;fill-opacity:0.75;fill-rule:evenodd;stroke:#000000;stroke-width:2;stroke-linecap:butt;stroke-linejoin:miter;stroke-opacity:1;stroke-miterlimit:4;stroke-dasharray:none"
       d="M 195.25,71.5 C 201.90881,79.401212 207.96521,78.668043 213.625,72.25"
       id="path3149"
       sodipodi:nodetypes="cc" />
    <path
       style="fill:none;fill-opacity:0.75;fill-rule:evenodd;stroke:#000000;stroke-width:2;stroke-linecap:butt;stroke-linejoin:miter;stroke-opacity:1;opacity:1;color:#000000;marker:none;marker-start:none;marker-mid:none;marker-end:none;stroke-miterlimit:4;stroke-dasharray:none;stroke-dashoffset:0;visibility:visible;display:inline;overflow:visible"
       d="M 190.125,78.25 C 194.20057,83.550944 198.38672,88.804503 204.75,93.125 C 210.83471,89.482615 216.12243,83.847739 220.875,76.875"
       id="path4024"
       sodipodi:nodetypes="ccc" />
    <path
       style="fill:none;fill-opacity:0.75;fill-rule:evenodd;stroke:#000000;stroke-width:2;stroke-linecap:butt;stroke-linejoin:miter;stroke-opacity:1;opacity:1;color:#000000;marker:none;marker-start:none;marker-mid:none;marker-end:none;stroke-miterlimit:4;stroke-dasharray:none;stroke-dashoffset:0;visibility:visible;display:inline;overflow:visible"
       d="M 189.125,114.625 C 198.94262,112.37572 208.64012,111.08741 218.125,111.5"
       id="path4026"
       sodipodi:nodetypes="cc" />
    <path
       style="fill:none;fill-opacity:0.75;fill-rule:evenodd;stroke:#000000;stroke-width:2;stroke-linecap:butt;stroke-linejoin:miter;stroke-opacity:1;opacity:1;color:#000000;marker:none;marker-start:none;marker-mid:none;marker-end:none;stroke-miterlimit:4;stroke-dasharray:none;stroke-dashoffset:0;visibility:visible;display:inline;overflow:visible"
       d="M 189.125,119.25 C 198.91667,116.7854 208.70833,115.39116 218.5,116.25"
       id="path4028"
       sodipodi:nodetypes="cc" />
    <path
       style="fill:none;fill-opacity:0.75;fill-rule:evenodd;stroke:#000000;stroke-width:2;stroke-linecap:butt;stroke-linejoin:miter;stroke-opacity:1;opacity:1;color:#000000;marker:none;marker-start:none;marker-mid:none;marker-end:none;stroke-miterlimit:4;stroke-dasharray:none;stroke-dashoffset:0;visibility:visible;display:inline;overflow:visible"
       d="M 205.25,83.125 L 204.625,111.75"
       id="path4030"
       sodipodi:nodetypes="cc" />
    <path
       style="fill:none;fill-opacity:0.75;fill-rule:evenodd;stroke:#000000;stroke-width:2;stroke-linecap:butt;stroke-linejoin:miter;stroke-opacity:1;opacity:1;color:#000000;marker:none;marker-start:none;marker-mid:none;marker-end:none;stroke-miterlimit:4;stroke-dasharray:none;stroke-dashoffset:0;visibility:visible;display:inline;overflow:visible"
       d="M 180.25,152.25 C 187.73728,148.27768 194.9687,147.37561 202.125,147.375 L 204.5,147.375 C 210.875,144.69931 217.25,143.09273 223.625,142.75"
       id="path4032"
       sodipodi:nodetypes="cccc" />
    <path
       style="fill:none;fill-opacity:0.75;fill-rule:evenodd;stroke:#000000;stroke-width:2;stroke-linecap:butt;stroke-linejoin:miter;stroke-opacity:1;opacity:1;color:#000000;marker:none;marker-start:none;marker-mid:none;marker-end:none;stroke-miterlimit:4;stroke-dasharray:none;stroke-dashoffset:0;visibility:visible;display:inline;overflow:visible"
       d="M 205.875,129.75 C 204.81245,135.83333 205.63384,141.41667 203.375,148"
       id="path4034"
       sodipodi:nodetypes="cc" />
    <path
       style="fill:none;fill-opacity:0.75;fill-rule:evenodd;stroke:#000000;stroke-width:2;stroke-linecap:butt;stroke-linejoin:miter;stroke-opacity:1;opacity:1;color:#000000;marker:none;marker-start:none;marker-mid:none;marker-end:none;stroke-miterlimit:4;stroke-dasharray:none;stroke-dashoffset:0;visibility:visible;display:inline;overflow:visible"
       d="M 248.54803,117.56645 C 248.20583,119.50148 248.46587,121.55696 245.89638,123.04653"
       id="path4036"
       sodipodi:nodetypes="cc" />
    <path
       style="fill:none;fill-opacity:0.75;fill-rule:evenodd;stroke:#000000;stroke-width:2;stroke-linecap:butt;stroke-linejoin:miter;stroke-opacity:1;opacity:1;color:#000000;marker:none;marker-start:none;marker-mid:none;marker-end:none;stroke-miterlimit:4;stroke-dasharray:none;stroke-dashoffset:0;visibility:visible;display:inline;overflow:visible"
       d="M 153.61895,116.15224 C 155.46007,112.1453 154.75553,108.13836 154.32606,104.13142"
       id="path4038"
       sodipodi:nodetypes="cc" />
    <path
       style="fill:none;fill-opacity:0.75;fill-rule:evenodd;stroke:#000000;stroke-width:2;stroke-linecap:butt;stroke-linejoin:miter;stroke-opacity:1;opacity:1;color:#000000;marker:none;marker-start:none;marker-mid:none;marker-end:none;stroke-miterlimit:4;stroke-dasharray:none;stroke-dashoffset:0;visibility:visible;display:inline;overflow:visible"
       d="M 139.83037,114.56125 C 140.99592,111.40225 139.60566,107.40729 141.24458,103.77787"
       id="path4040"
       sodipodi:nodetypes="cc" />
    <path
       style="fill:none;fill-opacity:0.75;fill-rule:evenodd;stroke:#000000;stroke-width:2;stroke-linecap:butt;stroke-linejoin:miter;stroke-opacity:1;opacity:1;color:#000000;marker:none;marker-start:none;marker-mid:none;marker-end:none;stroke-miterlimit:4;stroke-dasharray:none;stroke-dashoffset:0;visibility:visible;display:inline;overflow:visible"
       d="M 136.11806,113.32381 C 132.81769,111.00697 127.73258,112.6075 125.33468,109.25795"
       id="path4042"
       sodipodi:nodetypes="cc" />
    <path
       style="fill:none;fill-opacity:0.75;fill-rule:evenodd;stroke:#000000;stroke-width:2;stroke-linecap:butt;stroke-linejoin:miter;stroke-opacity:1;opacity:1;color:#000000;marker:none;marker-start:none;marker-mid:none;marker-end:none;stroke-miterlimit:4;stroke-dasharray:none;stroke-dashoffset:0;visibility:visible;display:inline;overflow:visible"
       d="M 132.93608,106.25274 L 136.82516,105.72241"
       id="path4044" />
    <path
       style="fill:none;fill-opacity:0.75;fill-rule:evenodd;stroke:#000000;stroke-width:2;stroke-linecap:butt;stroke-linejoin:miter;stroke-opacity:1;opacity:1;color:#000000;marker:none;marker-start:none;marker-mid:none;marker-end:none;stroke-miterlimit:4;stroke-dasharray:none;stroke-dashoffset:0;visibility:visible;display:inline;overflow:visible"
       d="M 132.05219,98.121014 L 132.22897,88.928626"
       id="path4046" />
    <path
       style="color:#000000;fill:#010101;fill-opacity:1;fill-rule:evenodd;stroke:#000000;stroke-width:2;stroke-linecap:butt;stroke-linejoin:miter;marker:none;marker-start:none;marker-mid:none;marker-end:none;stroke-miterlimit:4;stroke-dashoffset:0;stroke-opacity:1;visibility:visible;display:inline;overflow:visible"
       d="M 218.31922,226.3725 C 218.31922,227.49468 217.52726,228.40544 216.55145,228.40544 C 215.57565,228.40544 214.78369,227.49468 214.78369,226.3725 C 214.78369,225.25033 216.10598,225.04668 217.08178,225.04668 C 218.05759,225.04668 218.31922,225.25033 218.31922,226.3725 z "
       id="path4925"
       sodipodi:nodetypes="csssc" />
    <path
       style="color:#000000;fill:#010101;fill-opacity:1;fill-rule:evenodd;stroke:#000000;stroke-width:2;stroke-linecap:butt;stroke-linejoin:miter;marker:none;marker-start:none;marker-mid:none;marker-end:none;stroke-miterlimit:4;stroke-dashoffset:0;stroke-opacity:1;visibility:visible;display:inline;overflow:visible"
       d="M 228.21871,227.69833 C 228.21871,228.82051 227.24997,229.90805 226.27416,229.90805 C 225.29836,229.90805 224.68318,228.82051 224.68318,227.69833 C 224.68318,226.57616 225.12159,226.37251 226.09739,226.37251 C 227.0732,226.37251 228.21871,226.57616 228.21871,227.69833 z "
       id="path4928"
       sodipodi:nodetypes="csssc" />
    <path
       style="color:#000000;fill:#010101;fill-opacity:1;fill-rule:evenodd;stroke:#000000;stroke-width:2.00000024;stroke-linecap:butt;stroke-linejoin:miter;marker:none;marker-start:none;marker-mid:none;marker-end:none;stroke-miterlimit:4;stroke-dashoffset:0;stroke-opacity:1;visibility:visible;display:inline;overflow:visible"
       d="M 181.13002,230.34998 C 181.13002,231.47216 180.56568,232.38292 179.87034,232.38292 C 179.17499,232.38292 178.61065,231.47216 178.61065,230.34998 C 178.61065,229.22781 179.5529,229.02416 180.24824,229.02416 C 180.94359,229.02416 181.13002,229.22781 181.13002,230.34998 z "
       id="path4930"
       sodipodi:nodetypes="csssc" />
    <path
       style="color:#000000;fill:#010101;fill-opacity:1;fill-rule:evenodd;stroke:#000000;stroke-width:2.00000072;stroke-linecap:butt;stroke-linejoin:miter;marker:none;marker-start:none;marker-mid:none;marker-end:none;stroke-miterlimit:4;stroke-dashoffset:0;stroke-opacity:1;visibility:visible;display:inline;overflow:visible"
       d="M 189.43478,226.37876 C 190.23077,227.16977 190.479,228.21205 189.98887,228.70527 C 189.49873,229.1985 188.45491,228.95682 187.65892,228.16581 C 186.86294,227.37482 186.67555,226.73969 187.16568,226.24646 C 187.65582,225.75324 188.6388,225.58776 189.43478,226.37876 z "
       id="path4932"
       sodipodi:nodetypes="csssc" />
    <path
       style="fill:#010101;fill-opacity:1;fill-rule:evenodd;stroke:#000000;stroke-width:1px;stroke-linecap:butt;stroke-linejoin:miter;stroke-opacity:1"
       d="M 184.73164,235.29973 C 184.20131,234.81359 184.59907,232.82486 185.26198,232.64808 C 185.92489,232.4713 187.16233,233.92971 187.02975,234.59262 C 186.89716,235.25553 185.26197,235.78587 184.73164,235.29973 z "
       id="path4934"
       sodipodi:nodetypes="csss" />
    <path
       style="fill:#010101;fill-opacity:1;fill-rule:evenodd;stroke:#000000;stroke-width:1px;stroke-linecap:butt;stroke-linejoin:miter;stroke-opacity:1;display:inline"
       d="M 218.22162,234.44421 C 218.00476,233.75824 219.34214,232.23355 220.00479,232.41128 C 220.66745,232.589 221.0117,234.47042 220.56591,234.97865 C 220.12012,235.48688 218.43849,235.13018 218.22162,234.44421 z "
       id="path4936"
       sodipodi:nodetypes="csss" />
    <path
       style="fill:none;fill-opacity:0.75;fill-rule:evenodd;stroke:#000000;stroke-width:1px;stroke-linecap:butt;stroke-linejoin:miter;stroke-opacity:1"
       d="M 183.125,242.25 C 183.5,243.75 184.625,245.25 184.625,245.25"
       id="path4938" />
    <path
       style="fill:none;fill-opacity:0.75;fill-rule:evenodd;stroke:#000000;stroke-width:1px;stroke-linecap:butt;stroke-linejoin:miter;stroke-opacity:1"
       d="M 185.125,241.875 L 186.625,245.25"
       id="path4940" />
    <path
       style="fill:none;fill-opacity:0.75;fill-rule:evenodd;stroke:#000000;stroke-width:1px;stroke-linecap:butt;stroke-linejoin:miter;stroke-opacity:1"
       d="M 187.25,241.5 L 188.875,244.625"
       id="path4942" />
    <path
       style="fill:none;fill-opacity:0.75;fill-rule:evenodd;stroke:#000000;stroke-width:1px;stroke-linecap:butt;stroke-linejoin:miter;stroke-opacity:1"
       d="M 189.375,240.875 L 191.375,244.5"
       id="path4944" />
    <path
       style="fill:none;fill-opacity:0.75;fill-rule:evenodd;stroke:#000000;stroke-width:1px;stroke-linecap:butt;stroke-linejoin:miter;stroke-opacity:1"
       d="M 191.125,240.125 L 193.125,242.875"
       id="path4946" />
    <path
       style="fill:none;fill-opacity:0.75;fill-rule:evenodd;stroke:#000000;stroke-width:1px;stroke-linecap:butt;stroke-linejoin:miter;stroke-opacity:1"
       d="M 214.875,239.25 L 212.625,243.25"
       id="path4948" />
    <path
       style="fill:none;fill-opacity:0.75;fill-rule:evenodd;stroke:#000000;stroke-width:1px;stroke-linecap:butt;stroke-linejoin:miter;stroke-opacity:1"
       d="M 216.375,240.125 L 214.25,244.125"
       id="path4950" />
    <path
       style="fill:none;fill-opacity:0.75;fill-rule:evenodd;stroke:#000000;stroke-width:1px;stroke-linecap:butt;stroke-linejoin:miter;stroke-opacity:1"
       d="M 217.75,241 L 216.25,245.375"
       id="path4952" />
    <path
       style="fill:none;fill-opacity:0.75;fill-rule:evenodd;stroke:#000000;stroke-width:1px;stroke-linecap:butt;stroke-linejoin:miter;stroke-opacity:1"
       d="M 219.375,241.125 L 218.125,244.875"
       id="path4954" />
    <path
       style="fill:none;fill-opacity:0.75;fill-rule:evenodd;stroke:#000000;stroke-width:1px;stroke-linecap:butt;stroke-linejoin:miter;stroke-opacity:1"
       d="M 221,241.125 L 220.625,245"
       id="path4956" />
    <path
       style="fill:none;fill-opacity:0.75;fill-rule:evenodd;stroke:#000000;stroke-width:1px;stroke-linecap:butt;stroke-linejoin:miter;stroke-opacity:1"
       d="M 222.125,241 L 222.875,244.75"
       id="path4958" />
    <path
       transform="scale(0.901829,1.108857)"
       style="font-size:26.23399162px;font-style:normal;font-variant:normal;font-weight:bold;font-stretch:normal;text-align:start;line-height:125%;writing-mode:lr-tb;text-anchor:start;fill:#ffffff;fill-opacity:1;stroke:none;stroke-width:1px;stroke-linecap:butt;stroke-linejoin:miter;stroke-opacity:1;font-family:Book Antiqua"
       d="M 163.32663,239.49457 C 164.12936,239.45187 164.62466,239.37074 164.81254,239.25119 C 164.94063,239.16579 165.14131,238.84128 165.41458,238.27766 C 165.9355,237.1675 166.6016,235.62608 167.41288,233.65341 L 171.94746,222.54751 L 173.83047,222.54751 L 179.62039,236.30499 C 180.37187,238.08979 180.83301,239.06758 181.00383,239.23838 C 181.18314,239.40917 181.72541,239.52446 182.63064,239.58424 L 182.63064,240.66024 C 181.23865,240.60046 179.92354,240.57057 178.6853,240.57057 C 177.20791,240.57057 175.80313,240.60046 174.47095,240.66024 L 174.47095,239.58424 C 175.48716,239.54154 176.07213,239.48603 176.22586,239.41771 C 176.3881,239.34085 176.46923,239.20849 176.46924,239.02061 C 176.46923,238.85836 176.28989,238.30328 175.93124,237.35537 L 175.08581,235.16493 C 174.02687,235.14786 172.84412,235.13932 171.53756,235.13932 C 170.40177,235.13932 169.36846,235.14786 168.43764,235.16493 L 167.87402,236.63804 C 167.7203,237.03941 167.53243,237.63718 167.3104,238.43137 C 167.25916,238.61071 167.23354,238.77296 167.23354,238.91814 C 167.23354,239.11455 167.31467,239.25546 167.47692,239.34085 C 167.64771,239.41771 168.24976,239.49884 169.28307,239.58424 L 169.28307,240.66024 C 168.44618,240.60046 167.40433,240.57057 166.15754,240.57057 C 164.97052,240.57057 164.02688,240.60046 163.32663,240.66024 L 163.32663,239.49457 M 171.7297,227.0821 L 169.02688,233.65341 C 169.81253,233.69611 170.67931,233.71746 171.62722,233.71745 C 172.61782,233.71746 173.56573,233.69611 174.47095,233.65341 L 171.7297,227.0821 M 184.88513,240.66024 L 184.88513,240.05819 C 185.37189,239.76784 185.74336,239.50311 185.99956,239.264 C 186.10203,238.08552 186.15327,235.48091 186.15327,231.45016 C 186.15327,228.52959 186.11057,226.46298 186.02518,225.25033 C 185.98248,224.59279 185.89281,224.2085 185.75618,224.09747 C 185.5683,223.92669 184.91928,223.81568 183.80912,223.76442 L 183.80912,222.68842 L 186.26856,222.73966 L 188.15157,222.77808 C 188.72372,222.7781 189.56915,222.75675 190.68786,222.71404 C 191.77239,222.67136 192.54951,222.65001 193.0192,222.64999 C 194.915,222.65001 196.27282,222.97025 197.09264,223.61071 C 197.91244,224.24266 198.32235,225.10944 198.32236,226.21105 C 198.32235,227.34684 197.91671,228.2734 197.10545,228.99072 C 196.29417,229.70807 195.14985,230.22045 193.67249,230.52787 L 193.67249,230.63035 C 195.19254,230.78407 196.26001,231.01465 196.87488,231.32207 C 197.48972,231.6295 197.98503,232.10773 198.36079,232.75674 C 198.73652,233.40576 198.92439,234.14445 198.92441,234.97279 C 198.92439,235.98902 198.6127,236.94974 197.98931,237.85494 C 197.37444,238.76016 196.55463,239.45187 195.52988,239.93009 C 194.51364,240.40832 193.07897,240.64743 191.22586,240.64743 C 190.85865,240.64743 190.30783,240.63462 189.57343,240.609 C 188.89024,240.58338 188.33089,240.57057 187.89537,240.57057 C 187.40861,240.57057 186.40519,240.60046 184.88513,240.66024 M 189.79119,230.09235 L 190.45729,230.09235 C 191.90049,230.09236 192.91244,229.8319 193.49315,229.31096 C 194.08238,228.79005 194.377,227.97451 194.37701,226.86434 C 194.377,225.89082 194.13789,225.17349 193.65968,224.71233 C 193.18998,224.2512 192.41287,224.02063 191.32834,224.02061 C 190.92696,224.02063 190.43593,224.05479 189.85524,224.12309 C 189.80399,226.74479 189.77837,228.35026 189.77838,228.93949 L 189.79119,230.09235 M 189.81681,239.19995 C 190.3121,239.32805 190.77752,239.39209 191.21305,239.39209 C 192.42568,239.39209 193.35651,239.04624 194.00554,238.35452 C 194.65454,237.65426 194.97905,236.6295 194.97906,235.28022 C 194.97905,234.40064 194.82961,233.6833 194.53073,233.12821 C 194.24037,232.5646 193.83473,232.14616 193.31382,231.87288 C 192.80143,231.59961 192.06701,231.46298 191.11058,231.46297 L 189.81681,231.47578 L 189.81681,231.80883 L 189.79119,235.12651 L 189.81681,238.48261 L 189.81681,239.19995 M 201.33261,240.66024 L 201.33261,239.58424 C 202.45131,239.533 203.08325,239.46041 203.22843,239.36647 C 203.38214,239.264 203.48461,239.05904 203.53585,238.75161 C 203.62125,238.28193 203.66395,237.09918 203.66395,235.20336 L 203.65114,228.19653 C 203.6426,225.83105 203.5999,224.54155 203.52305,224.32804 C 203.48034,224.19996 203.40776,224.10176 203.30528,224.03342 C 203.13449,223.92242 202.47693,223.83276 201.33261,223.76442 L 201.33261,222.68842 C 203.04055,222.74821 204.39409,222.7781 205.39324,222.77808 C 206.97308,222.7781 208.41629,222.74821 209.72288,222.68842 L 209.72288,223.76442 C 208.67248,223.83276 208.05335,223.90961 207.86549,223.99499 C 207.75446,224.04625 207.67334,224.12311 207.62211,224.22557 C 207.5367,224.38784 207.47692,224.88314 207.44277,225.71148 C 207.39153,226.94121 207.36591,228.188 207.36592,229.45187 L 207.36592,230.51506 C 208.25404,230.55777 209.66309,230.57912 211.59307,230.57911 C 213.30954,230.57912 214.57342,230.55777 215.3847,230.51506 C 215.39323,227.73967 215.36334,225.89509 215.29504,224.98133 C 215.26086,224.49458 215.1712,224.19569 215.02604,224.08466 C 214.82961,223.92242 214.16351,223.81568 213.02774,223.76442 L 213.02774,222.68842 C 215.15412,222.74821 216.59306,222.7781 217.34457,222.77808 C 218.63405,222.7781 219.99613,222.74821 221.43082,222.68842 L 221.43082,223.76442 C 220.33772,223.83276 219.70151,223.91388 219.52219,224.0078 C 219.4197,224.05906 219.34284,224.13591 219.29162,224.23837 C 219.21475,224.41773 219.15924,225.11371 219.1251,226.32633 C 219.0653,228.188 219.03541,229.69526 219.03543,230.84811 L 219.11229,236.66365 C 219.12935,237.97877 219.16778,238.73454 219.22757,238.93095 C 219.28733,239.12736 219.38554,239.26827 219.52219,239.35366 C 219.65881,239.43052 220.29502,239.50738 221.43082,239.58424 L 221.43082,240.66024 L 220.00896,240.62181 C 218.94147,240.58765 218.10458,240.57057 217.49828,240.57057 C 216.23439,240.57057 214.74421,240.60046 213.02774,240.66024 L 213.02774,239.58424 C 214.17205,239.533 214.82107,239.44333 214.9748,239.31523 C 215.13704,239.1786 215.23524,238.82847 215.26942,238.26485 C 215.32918,237.29987 215.36761,235.2418 215.3847,232.09064 C 214.42824,232.05649 213.36505,232.03941 212.19512,232.0394 C 210.35907,232.03941 208.74934,232.05649 207.36592,232.09064 L 207.36592,232.93607 C 207.36591,235.17348 207.3958,236.85153 207.45558,237.97023 C 207.49827,238.72173 207.60075,239.16152 207.76301,239.28962 C 207.92526,239.40917 208.57855,239.50738 209.72288,239.58424 L 209.72288,240.66024 L 208.21135,240.62181 C 207.25489,240.58765 206.40092,240.57057 205.64943,240.57057 L 201.33261,240.66024 M 229.68018,239.49457 C 230.48291,239.45187 230.97821,239.37074 231.16609,239.25119 C 231.29418,239.16579 231.49487,238.84128 231.76814,238.27766 C 232.28906,237.1675 232.95515,235.62608 233.76643,233.65341 L 238.30102,222.54751 L 240.18402,222.54751 L 245.97395,236.30499 C 246.72542,238.08979 247.18657,239.06758 247.35738,239.23838 C 247.5367,239.40917 248.07897,239.52446 248.9842,239.58424 L 248.9842,240.66024 C 247.5922,240.60046 246.27709,240.57057 245.03885,240.57057 C 243.56146,240.57057 242.15668,240.60046 240.8245,240.66024 L 240.8245,239.58424 C 241.84071,239.54154 242.42568,239.48603 242.57941,239.41771 C 242.74165,239.34085 242.82278,239.20849 242.82279,239.02061 C 242.82278,238.85836 242.64345,238.30328 242.28479,237.35537 L 241.43936,235.16493 C 240.38043,235.14786 239.19768,235.13932 237.89111,235.13932 C 236.75532,235.13932 235.72202,235.14786 234.7912,235.16493 L 234.22758,236.63804 C 234.07386,237.03941 233.88598,237.63718 233.66395,238.43137 C 233.61271,238.61071 233.58709,238.77296 233.5871,238.91814 C 233.58709,239.11455 233.66822,239.25546 233.83048,239.34085 C 234.00127,239.41771 234.60332,239.49884 235.63663,239.58424 L 235.63663,240.66024 C 234.79973,240.60046 233.75789,240.57057 232.51109,240.57057 C 231.32407,240.57057 230.38043,240.60046 229.68018,240.66024 L 229.68018,239.49457 M 238.08325,227.0821 L 235.38044,233.65341 C 236.16608,233.69611 237.03286,233.71746 237.98078,233.71745 C 238.97137,233.71746 239.91928,233.69611 240.8245,233.65341 L 238.08325,227.0821 M 250.07301,240.67305 L 250.07301,239.59704 L 250.84158,239.54581 C 251.46498,239.51165 251.85354,239.4049 252.00725,239.22557 C 252.16951,239.04624 252.26344,238.43992 252.28906,237.40661 C 252.34884,235.29731 252.37873,233.01294 252.37873,230.55349 C 252.37873,229.24693 252.37019,227.76102 252.35311,226.09576 C 252.33603,225.08809 252.27625,224.47323 252.17378,224.25118 C 252.12254,224.14018 252.0286,224.05052 251.89197,223.98218 C 251.75533,223.91388 251.14901,223.8413 250.07301,223.76442 L 250.07301,222.68842 C 251.10631,222.71405 252.11827,222.72686 253.10888,222.72685 C 254.26173,222.72686 255.37189,222.71405 256.43936,222.68842 C 256.9005,223.77298 257.37872,224.84898 257.87403,225.91643 C 258.22415,226.67648 259.77411,229.90021 262.52391,235.58765 C 265.42739,229.7465 267.45984,225.44676 268.62126,222.68842 C 269.64601,222.73113 270.61953,222.75248 271.54184,222.75247 C 272.62636,222.75248 273.67248,222.73113 274.68019,222.68842 L 274.68019,223.76442 C 273.56146,223.83276 272.92952,223.93096 272.78437,224.05904 C 272.63917,224.18715 272.54523,224.57998 272.50256,225.23752 C 272.43422,226.31354 272.40006,228.3588 272.40008,231.3733 C 272.40006,232.89338 272.41714,234.49884 272.45132,236.1897 C 272.48546,237.88057 272.54523,238.83701 272.63066,239.05904 C 272.69041,239.18714 272.77581,239.28535 272.88685,239.35366 C 272.99784,239.42198 273.59562,239.50311 274.68019,239.59704 L 274.68019,240.67305 C 273.29673,240.60473 272.06274,240.57057 270.97822,240.57057 C 269.88512,240.57057 268.39921,240.60473 266.52049,240.67305 L 266.52049,239.59704 L 267.27626,239.57143 C 267.87402,239.54581 268.24549,239.46468 268.39069,239.32804 C 268.54438,239.18287 268.64259,238.81139 268.68531,238.21361 C 268.72799,237.6073 268.74934,236.18543 268.74936,233.94803 L 268.74936,226.21105 C 267.43422,228.84983 265.75617,232.30841 263.7152,236.5868 C 262.87829,238.34598 262.225,239.78065 261.75533,240.89081 L 260.88428,240.89081 C 260.24379,239.42198 259.38555,237.5646 258.30956,235.31865 L 253.87745,226.21105 L 253.87745,227.95315 C 253.87745,232.76955 253.90306,236.08723 253.95431,237.90618 C 253.97992,238.6406 254.07813,239.0932 254.24893,239.264 C 254.41972,239.43479 255.05592,239.54581 256.15755,239.59704 L 256.15755,240.67305 C 255.2865,240.60473 254.41545,240.57057 253.5444,240.57057 C 252.24636,240.57057 251.08923,240.60473 250.07301,240.67305 M 276.39667,240.66024 L 276.39667,239.58424 C 277.51537,239.533 278.14731,239.46041 278.29249,239.36647 C 278.4462,239.264 278.54867,239.05904 278.59992,238.75161 C 278.68531,238.28193 278.72801,237.09918 278.72801,235.20336 L 278.7152,228.19653 C 278.70666,225.83105 278.66396,224.54155 278.58711,224.32804 C 278.5444,224.19996 278.47182,224.10176 278.36934,224.03342 C 278.19855,223.92242 277.54099,223.83276 276.39667,223.76442 L 276.39667,222.68842 C 278.10461,222.74821 279.45815,222.7781 280.4573,222.77808 C 282.03714,222.7781 283.48035,222.74821 284.78694,222.68842 L 284.78694,223.76442 C 283.73654,223.83276 283.11741,223.90961 282.92955,223.99499 C 282.81852,224.04625 282.7374,224.12311 282.68617,224.22557 C 282.60076,224.38784 282.54098,224.88314 282.50683,225.71148 C 282.45559,226.94121 282.42997,228.188 282.42998,229.45187 L 282.42998,230.51506 C 283.3181,230.55777 284.72715,230.57912 286.65713,230.57911 C 288.3736,230.57912 289.63748,230.55777 290.44876,230.51506 C 290.45729,227.73967 290.4274,225.89509 290.3591,224.98133 C 290.32492,224.49458 290.23526,224.19569 290.0901,224.08466 C 289.89367,223.92242 289.22757,223.81568 288.0918,223.76442 L 288.0918,222.68842 C 290.21818,222.74821 291.65712,222.7781 292.40863,222.77808 C 293.69811,222.7781 295.06019,222.74821 296.49488,222.68842 L 296.49488,223.76442 C 295.40178,223.83276 294.76557,223.91388 294.58625,224.0078 C 294.48376,224.05906 294.4069,224.13591 294.35568,224.23837 C 294.27881,224.41773 294.2233,225.11371 294.18916,226.32633 C 294.12936,228.188 294.09947,229.69526 294.09949,230.84811 L 294.17635,236.66365 C 294.19341,237.97877 294.23184,238.73454 294.29163,238.93095 C 294.35139,239.12736 294.4496,239.26827 294.58625,239.35366 C 294.72287,239.43052 295.35908,239.50738 296.49488,239.58424 L 296.49488,240.66024 L 295.07302,240.62181 C 294.00553,240.58765 293.16864,240.57057 292.56234,240.57057 C 291.29845,240.57057 289.80827,240.60046 288.0918,240.66024 L 288.0918,239.58424 C 289.23611,239.533 289.88513,239.44333 290.03886,239.31523 C 290.2011,239.1786 290.2993,238.82847 290.33348,238.26485 C 290.39324,237.29987 290.43167,235.2418 290.44876,232.09064 C 289.4923,232.05649 288.42911,232.03941 287.25918,232.0394 C 285.42313,232.03941 283.8134,232.05649 282.42998,232.09064 L 282.42998,232.93607 C 282.42997,235.17348 282.45986,236.85153 282.51964,237.97023 C 282.56233,238.72173 282.66481,239.16152 282.82707,239.28962 C 282.98932,239.40917 283.64261,239.50738 284.78694,239.58424 L 284.78694,240.66024 L 283.27541,240.62181 C 282.31895,240.58765 281.46498,240.57057 280.71349,240.57057 L 276.39667,240.66024"
       id="text4960" />
  </g>
</svg>
