<?xml version="1.0" encoding="UTF-8"?>
<svg id="Calque_1" xmlns="http://www.w3.org/2000/svg" version="1.1" viewBox="0 0 600 451">
  <!-- Generator: Adobe Illustrator 30.3.0, SVG Export Plug-In . SVG Version: 2.1.3 Build 182)  -->
  <defs>
    <style>
      .st0 {
        fill: #fff;
      }

      .st1 {
        fill-rule: evenodd;
      }
    </style>
  </defs>
  <rect class="st0" width="600" height="451"/>
  <path class="st1" d="M161.5,230.5c.67,0,1,.33,1,1,20.14,18.78,43.14,33.11,69,43,60.41,32.42,123.74,57.92,190,76.5l1,1c-6.26,9.12-14.92,12.79-26,11-34.82-10.24-69.15-21.91-103-35-55.15-23.55-105.31-54.71-150.5-93.5-.17.33-.33.67-.5,1,13.02,14.53,27.69,27.03,44,37.5,38.19,24.43,78.19,45.77,120,64,31.74,11.14,63.41,22.47,95,34,2.61,1.94,4.44,4.44,5.5,7.5,1.19,5.27,1.69,10.6,1.5,16-73.08-19.08-142.41-47.24-208-84.5-56.76-34.07-106.92-76.24-150.5-126.5-16.38-21.08-30.38-43.74-42-68-3.57-8.21-6.4-16.54-8.5-25v-24c2.33-1.25,4.16-.58,5.5,2,41.78,63.95,93.95,117.95,156.5,162Z"/>
  <path class="st1" d="M599.5,66.5v24c-4.1,14.89-9.93,29.22-17.5,43-10.76,18.53-22.76,36.2-36,53-52.27,59.62-113.77,107.12-184.5,142.5-10.33-2.39-20.33-5.89-30-10.5,26.49-14.07,52.49-28.91,78-44.5,15.33-9.98,29.49-21.49,42.5-34.5.67-.67.67-1.33,0-2-38.19,31.53-79.69,58.2-124.5,80-8.4-3.03-16.4-6.86-24-11.5,87-37.4,163.16-90.23,228.5-158.5,15.38-17.71,30.38-35.71,45-54,5.83-7.66,11.16-15.66,16-24,1.6-2.87,3.77-3.87,6.5-3ZM572.5,129.5c-2.97,6.6-6.47,12.93-10.5,19-16.59,23.61-35.42,45.44-56.5,65.5-2.23,1.75-4.57,3.25-7,4.5,28.41-26.72,53.07-56.39,74-89Z"/>
  <path class="st1" d="M206.5,450.5h-18c-10.95-3.45-18.12-10.78-21.5-22-4.68-23.7-12.35-46.37-23-68-2.67-5.71-6.5-10.37-11.5-14-4.64,10.83-12.31,13.66-23,8.5-6.07-4.88-9.07-11.21-9-19,1.81-13.3,9.47-20.14,23-20.5,9.59.3,17.93,3.63,25,10,9.65,9.49,17.15,20.49,22.5,33,5.05,5.68,11.39,8.68,19,9-2.52,4.03-4.85,8.36-7,13-1.01,10.45-.34,20.79,2,31,2.26,4.86,5.26,9.19,9,13,1.63-2.42,3.13-4.92,4.5-7.5,13.94-3.42,20.94,2.25,21,17-.49,8.64-4.82,14.14-13,16.5Z"/>
  <path class="st1" d="M407.5,450.5h-18c-8.21-2.39-12.55-7.89-13-16.5.56-4.63,1.73-9.13,3.5-13.5,4.99-5.08,10.82-6.24,17.5-3.5,1.37,2.58,2.87,5.08,4.5,7.5,8.8-9.89,12.96-21.55,12.5-35-.18-3.38-.68-6.71-1.5-10-2.02-3.69-3.69-7.36-5-11,6.18-2.85,11.85-6.52,17-11,5.4-12.32,12.9-23.15,22.5-32.5,10.77-8.79,22.77-11.13,36-7,6.05,2.9,9.55,7.73,10.5,14.5,1.99,14.08-3.85,22.41-17.5,25-7.22-.23-11.22-3.89-12-11-2.76.24-4.93,1.58-6.5,4-8.77,13.29-15.44,27.63-20,43-3.41,14.96-7.74,29.63-13,44-4.39,6.43-10.23,10.76-17.5,13Z"/>
  <path class="st1" d="M233.5,331.5c1.37-.16,2.71.01,4,.5,7.05,4.19,14.39,7.86,22,11-19.8,7.93-40.14,14.27-61,19-5.4.77-10.74.44-16-1-3.53-2.03-6.19-4.86-8-8.5.21-.59.54-1.09,1-1.5,19.6-6.04,38.94-12.54,58-19.5Z"/>
  <path class="st1" d="M264.5,345.5c9.76,4.05,19.43,8.38,29,13-34.42,14.58-69.75,26.58-106,36-.59-7.01.57-13.67,3.5-20,1.56-1.86,3.39-3.36,5.5-4.5,22.73-8.3,45.39-16.46,68-24.5Z"/>
  <path class="st1" d="M107.5,364.5c5.13-.39,10.13.11,15,1.5,2.68,6.02,6.18,11.52,10.5,16.5-2.44-4.25-3.77-8.92-4-14,2.98-4.2,6.81-5.03,11.5-2.5,7.77,8.71,12.44,18.88,14,30.5.3,4.59-1.7,7.43-6,8.5-16.37,1.31-32.7,1.31-49,0-6.81-2.81-11.64-7.64-14.5-14.5-1.9-6.11-3.4-12.28-4.5-18.5.61-2.51,1.94-4.51,4-6,4-.67,8-.67,12,0,1.43.46,2.6,1.3,3.5,2.5,2.33,4.96,4.66,9.96,7,15,.84,1.51,2,2.01,3.5,1.5-4.32-5.46-6.15-11.63-5.5-18.5,1-.57,1.83-1.23,2.5-2Z"/>
  <path class="st1" d="M457.5,364.5c3.1-.35,5.93.32,8.5,2,.56,4.93-.11,9.6-2,14,3.1-4.53,5.93-9.2,8.5-14,5.6-2.44,11.26-2.61,17-.5,1.11,2.74,1.28,5.57.5,8.5-1.24,3.38-2.24,6.72-3,10,3.35-5.73,6.52-11.56,9.5-17.5,5.33-2,10.67-2,16,0,.96,1.71,1.62,3.54,2,5.5-.73,12.06-5.4,22.23-14,30.5-1.59.86-3.25,1.53-5,2-17.36,1.51-34.69,1.17-52-1-1.56-2-2.23-4.33-2-7,.98-13.12,6.31-23.95,16-32.5Z"/>
  <path class="st1" d="M56.5,365.5c18.31-.06,25.81,8.94,22.5,27-2.66,5.99-7.16,9.83-13.5,11.5-1.29,2.09-.62,3.42,2,4,3,.67,6,.67,9,0,3.68-2.87,7.68-5.04,12-6.5.16,1.37-.01,2.71-.5,4-11.93,17.74-26.26,20.07-43,7-9.13-12.51-9.8-25.51-2-39,3.9-3.86,8.4-6.52,13.5-8Z"/>
  <path class="st1" d="M528.5,365.5c18.93-1.23,28.27,7.6,28,26.5-1.32,21.64-12.65,30.98-34,28-9.87-2.36-15.21-8.53-16-18.5,1.05-.15,2.05.02,3,.5,6.04,7.13,13.04,8.3,21,3.5-15.08-6.49-19.25-17.15-12.5-32,2.85-3.71,6.35-6.38,10.5-8Z"/>
</svg>